<svg xmlns="http://www.w3.org/2000/svg" width="204.573" height="52.542"><g data-name="Group 830"><g data-name="Layer 1"><g data-name="Group 159"><g data-name="Group 158"><g data-name="Group 157"><path data-name="Path 490" d="M12.321 22.417h26.092a6.256 6.256 0 006.268-6.243 6.255 6.255 0 00-6.243-6.266H12.321V3.792h26.7a11.8 11.8 0 0111.773 11.82v1.15a11.735 11.735 0 01-3.067 7.883 12.536 12.536 0 015.428 10.344v1.246a12.543 12.543 0 01-12.566 12.517l-3.268-.007v-6.116l2.657.005a7.049 7.049 0 007.062-7.035 7.049 7.049 0 00-7.035-7.062H12.321z" fill="#0e2d3a"/><path data-name="Path 491" d="M19.465 48.744H0V3.792h6.205v38.836h13.268z" fill="#0e2d3a"/><path data-name="Path 492" d="M19.478 42.628h11.726v6.116H19.465z" fill="#e2bb66"/></g></g></g></g><g data-name="Layer 2"><g data-name="Group 160"><text data-name="advertising+ translation" transform="rotate(.113 -11441.316 49464.164)" fill="#fff" font-size="19" font-family="PlayfairDisplay-Regular, Playfair Display"><tspan x="0" y="0">advertising</tspan><tspan y="0" fill="#d3b66f" font-family="PlayfairDisplay-Bold, Playfair Display" font-weight="700">+</tspan><tspan x="0" y="17">translation</tspan></text></g><g data-name="Group 162"><g data-name="Group 161"><path data-name="Path 493" d="M12.321 22.417h26.092a6.256 6.256 0 006.268-6.243 6.255 6.255 0 00-6.243-6.266H12.321V3.792h26.7a11.8 11.8 0 0111.773 11.82v1.15a11.735 11.735 0 01-3.067 7.883 12.536 12.536 0 015.428 10.344v1.246a12.543 12.543 0 01-12.566 12.517l-3.268-.007v-6.116l2.657.005a7.049 7.049 0 007.062-7.035 7.049 7.049 0 00-7.035-7.062H12.321z" fill="#fff"/><path data-name="Path 494" d="M19.465 48.744H0V3.792h6.205v38.836h13.268z" fill="#fff"/><path data-name="Path 495" d="M19.478 42.628h11.726v6.116H19.465z" fill="#e2bb66"/></g></g><path data-name="Path 496" d="M76.415 52.543V0h1.677v52.543" fill="#e2bb66"/></g></g></svg>