<svg xmlns="http://www.w3.org/2000/svg" width="157.559" height="42.126"><defs><style>.cls-1{fill:#fff}</style></defs><g id="Group_818" data-name="Group 818" transform="translate(-52.09 -52.142)"><g id="Group_816" data-name="Group 816" transform="translate(52.09 52.142)"><g id="Group_815" data-name="Group 815"><path id="Path_723" data-name="Path 723" class="cls-1" d="M72.679 69.594h24.448a5.861 5.861 0 005.873-5.85 5.86 5.86 0 00-5.849-5.871H72.679v-5.731H97.7a11.054 11.054 0 0111.031 11.075v1.077a11 11 0 01-2.874 7.386 11.745 11.745 0 015.086 9.692v1.167a11.751 11.751 0 01-11.779 11.729l-3.064-.006v-5.731h2.49a6.6 6.6 0 006.617-6.591 6.6 6.6 0 00-6.591-6.617H72.679z" transform="translate(-61.134 -52.142)"/><path id="Path_724" data-name="Path 724" class="cls-1" d="M70.328 94.262H52.09v-42.12h5.81v36.389h12.44z" transform="translate(-52.09 -52.142)"/><path id="Path_725" data-name="Path 725" d="M84.627 117.037h10.988v5.731h-11z" transform="translate(-66.377 -80.648)" fill="#e2bb66"/></g></g><g id="Group_817" data-name="Group 817" transform="translate(120.313 57.978)"><path id="Path_726" data-name="Path 726" class="cls-1" d="M173.757 62.55h1.626v10.466h5.5v1.525h-7.13z" transform="translate(-173.757 -62.55)"/><path id="Path_727" data-name="Path 727" class="cls-1" d="M194.959 62.55h7.741v1.525h-6.114v3.573h5.69v1.524h-5.69v3.844H203v1.525h-8.044z" transform="translate(-183.07 -62.55)"/><path id="Path_728" data-name="Path 728" class="cls-1" d="M218.728 62.55h2.421l3.811 9.078h.068l3.772-9.078h2.421v11.991H229.6v-9.857h-.034l-4.047 9.857h-1.084l-4.047-9.857h-.034v9.857h-1.626z" transform="translate(-193.511 -62.55)"/><path id="Path_729" data-name="Path 729" class="cls-1" d="M251.829 62.55h1.626v11.991h-1.626z" transform="translate(-208.051 -62.55)"/><path id="Path_730" data-name="Path 730" class="cls-1" d="M265.753 62.55h7.739v1.525h-6.114v3.573h5.69v1.524h-5.69v3.844h6.422v1.525h-8.044z" transform="translate(-214.167 -62.55)"/><path id="Path_731" data-name="Path 731" class="cls-1" d="M290.966 62.55v7.35a4.718 4.718 0 00.153 1.16 3.352 3.352 0 00.509 1.109 2.74 2.74 0 00.931.83 3.3 3.3 0 002.845 0 2.761 2.761 0 00.931-.83 3.34 3.34 0 00.508-1.109A4.692 4.692 0 00297 69.9v-7.35h1.626v7.6a4.913 4.913 0 01-.356 1.905 4.514 4.514 0 01-.982 1.482 4.333 4.333 0 01-1.473.965 5.109 5.109 0 01-3.658 0 4.322 4.322 0 01-1.473-.965 4.532 4.532 0 01-.982-1.482 4.913 4.913 0 01-.356-1.905v-7.6z" transform="translate(-224.528 -62.55)"/><path id="Path_732" data-name="Path 732" class="cls-1" d="M317.733 68.24l-4.033-5.69h2.083l3.116 4.606 3.082-4.606h2.032l-4 5.674 4.4 6.317h-2.134l-3.438-5.2-3.455 5.2h-2.015z" transform="translate(-235.089 -62.55)"/><path id="Path_733" data-name="Path 733" class="cls-1" d="M173.757 95.253h4.166a5.373 5.373 0 011.448.187 3.417 3.417 0 011.152.551 2.559 2.559 0 01.762.931 2.978 2.978 0 01.279 1.33 2.455 2.455 0 01-.576 1.685 3.36 3.36 0 01-1.49.957v.034a2.544 2.544 0 011.017.279 2.789 2.789 0 01.821.644 3.1 3.1 0 01.753 2.057 2.988 2.988 0 01-.33 1.431 3.074 3.074 0 01-.906 1.042 4.2 4.2 0 01-1.338.643 5.886 5.886 0 01-1.642.22h-4.115zm1.626 4.979h2.217a3.85 3.85 0 00.864-.093 1.929 1.929 0 00.711-.313 1.577 1.577 0 00.483-.559 1.761 1.761 0 00.178-.829 1.7 1.7 0 00-1.9-1.762h-2.558zm0 5.589h2.388a4.913 4.913 0 00.821-.076 2.45 2.45 0 00.839-.305 2.085 2.085 0 00.66-.618 1.772 1.772 0 00.271-1.033 1.893 1.893 0 00-.695-1.6 3.014 3.014 0 00-1.88-.533h-2.405z" transform="translate(-173.757 -76.915)"/><path id="Path_734" data-name="Path 734" class="cls-1" d="M198.311 92.812h7.74v1.525h-6.114v3.574h5.69v1.524h-5.69v3.844h6.419v1.521h-8.044zM202.6 89.7h2.168l-2.523 2.438h-1.406z" transform="translate(-184.543 -74.475)"/><path id="Path_735" data-name="Path 735" class="cls-1" d="M221.809 95.253h4.183a7.764 7.764 0 012.227.288 5.95 5.95 0 011.659.77 4.892 4.892 0 011.169 1.109 5.956 5.956 0 01.737 1.287 6.513 6.513 0 01.39 1.321 6.985 6.985 0 01.118 1.22 6.029 6.029 0 01-.423 2.227 5.612 5.612 0 01-1.253 1.913 6.173 6.173 0 01-2.058 1.347 7.374 7.374 0 01-2.836.508h-3.912zm1.626 10.467h2.049a6.724 6.724 0 001.956-.28 4.73 4.73 0 001.617-.838 4.016 4.016 0 001.1-1.4 4.436 4.436 0 00.406-1.956 5.85 5.85 0 00-.186-1.347 4.017 4.017 0 00-.7-1.465 4.171 4.171 0 00-1.43-1.178 5.078 5.078 0 00-2.371-.482h-2.438z" transform="translate(-194.864 -76.915)"/><path id="Path_736" data-name="Path 736" class="cls-1" d="M252.764 95.253h1.474l5.131 11.991h-1.9l-1.2-2.964h-5.707l-1.185 2.964h-1.9zm2.913 7.6l-2.236-5.5h-.034l-2.269 5.5z" transform="translate(-206.141 -76.915)"/><path id="Path_737" data-name="Path 737" class="cls-1" d="M276.988 95.253h4.212a4.923 4.923 0 011.9.314 3.225 3.225 0 011.178.8 2.718 2.718 0 01.6 1.084 4.285 4.285 0 01.17 1.16 3.1 3.1 0 01-.2 1.109 3.157 3.157 0 01-.584.966 3.363 3.363 0 01-.932.728 3.241 3.241 0 01-1.228.363l3.4 5.471h-2.032l-3.048-5.284h-1.813v5.284h-1.626zm1.626 5.284h2.134a5.866 5.866 0 00.94-.076 2.522 2.522 0 00.829-.28 1.527 1.527 0 00.584-.584 2.336 2.336 0 000-1.981 1.527 1.527 0 00-.584-.584 2.509 2.509 0 00-.829-.279 5.8 5.8 0 00-.94-.077h-2.134z" transform="translate(-219.103 -76.915)"/><path id="Path_738" data-name="Path 738" class="cls-1" d="M300.486 95.253h4.183a7.764 7.764 0 012.227.288 5.958 5.958 0 011.659.77 4.9 4.9 0 011.169 1.109 5.954 5.954 0 01.737 1.287 6.51 6.51 0 01.389 1.321 6.937 6.937 0 01.119 1.22 6.029 6.029 0 01-.424 2.227 5.619 5.619 0 01-1.253 1.913 6.173 6.173 0 01-2.058 1.347 7.374 7.374 0 01-2.837.508h-3.912zm1.626 10.467h2.049a6.724 6.724 0 001.956-.28 4.729 4.729 0 001.617-.838 4.016 4.016 0 001.1-1.4 4.437 4.437 0 00.406-1.956 5.85 5.85 0 00-.186-1.347 4.035 4.035 0 00-.7-1.465 4.173 4.173 0 00-1.431-1.178 5.075 5.075 0 00-2.371-.482h-2.439z" transform="translate(-229.424 -76.915)"/><path id="Path_739" data-name="Path 739" class="cls-1" d="M324.122 97.7a2.338 2.338 0 01.192-.945 2.47 2.47 0 011.295-1.294 2.411 2.411 0 011.89 0 2.467 2.467 0 011.294 1.294 2.4 2.4 0 010 1.89 2.475 2.475 0 01-1.294 1.295 2.417 2.417 0 01-1.89 0 2.479 2.479 0 01-1.295-1.295 2.334 2.334 0 01-.192-.945zm.432 0a1.947 1.947 0 00.156.778 1.995 1.995 0 001.066 1.066 2.006 2.006 0 001.556 0 1.991 1.991 0 001.065-1.066 2.005 2.005 0 000-1.555 1.991 1.991 0 00-1.065-1.066 2.006 2.006 0 00-1.556 0 1.995 1.995 0 00-1.066 1.066 1.949 1.949 0 00-.156.777zm1.065-1.406h1.073a1.08 1.08 0 01.742.216.794.794 0 01.239.621.734.734 0 01-.188.549.783.783 0 01-.472.216l.719 1.177h-.536l-.693-1.138h-.373v1.138h-.51zm.51 1.21h.373c.078 0 .157 0 .236-.01a.729.729 0 00.212-.049.36.36 0 00.154-.118.425.425 0 000-.432.368.368 0 00-.154-.117.648.648 0 00-.212-.046c-.079 0-.157-.006-.236-.006h-.373z" transform="translate(-239.807 -76.922)"/></g></g></svg>