<svg width="180" height="45" viewBox="0 0 180 45" fill="none" xmlns="http://www.w3.org/2000/svg">
<path d="M17.4657 22.6556C14.2821 30.1457 8.85506 36.155 3.23985 40.9085C6.27854 39.9979 11.2613 37.6686 16.1227 34.7802C21.0433 31.8568 24.8106 28.407 24.8106 28.407C24.8106 28.407 28.7824 21.1679 29.4686 14.9579C28.1693 11.6539 22.5746 4.27521 19.3471 1.65689C19.8017 3.49335 22.1996 11.5178 17.4657 22.6556Z" fill="#3DA9D7"/>
<path d="M29.9576 0H19.0581C22.081 2.21696 26.1042 7.68874 26.713 8.58027C27.3219 9.4718 31.3894 15.4759 33.2737 20.0594C33.2737 20.0594 35.8531 17.01 37.4052 14.9766C38.9654 12.9325 41.2377 9.62199 41.2377 9.62199C39.2846 6.27711 36.5789 4.1206 35.7743 3.42477C34.9698 2.72894 31.9418 0.706687 29.9576 0Z" fill="#3DA9D7"/>
<path d="M43.6799 15.1677C42.8452 17.2682 41.6458 19.5749 40.0031 22.2836C38.7571 24.3384 37.7017 25.8533 36.479 27.4577C37.1874 29.534 38.741 33.8158 39.1606 35.1943C39.5801 36.5729 41.1786 42.169 41.8154 44.7789C43.6828 39.7841 44.7853 33.8669 45.1903 27.7247C45.4289 24.1062 44.7142 17.5981 43.6799 15.1677Z" fill="#3DA9D7"/>
<path d="M32.147 22.8959C26.0715 28.9505 17.2972 37.6945 0.822712 42.946L12.4555 42.9649C20.4466 40.5298 25.4497 36.5444 26.7126 35.6051C30.9682 32.4401 33.2678 29.6783 36.1107 26.1871C38.385 23.3941 44.1939 14.2221 46.5207 2.9939C43.8456 7.70301 37.6254 17.4363 32.1494 22.8935L32.147 22.8959Z" fill="#3DA9D7"/>
<path d="M99.165 30.8894V16.3894C99.165 16.0144 98.965 15.8394 98.615 15.8394H97.615V13.1394H100.64C101.815 13.1394 102.34 13.4144 102.34 14.5894V22.6394H103.29C103.69 22.6394 104.215 22.5644 104.49 22.1644L107.09 18.1394H110.615L107.39 22.9394C106.84 23.7394 106.44 23.9394 106.44 23.9394V23.9894C106.44 23.9894 106.89 24.1644 107.34 24.9894L108.79 27.7394C108.99 28.1144 109.24 28.2144 109.84 28.2144H110.69V30.8894H108.34C107.265 30.8894 106.84 30.7144 106.34 29.7894L104.215 25.7894C103.965 25.3394 103.44 25.3144 103.04 25.3144H102.34V30.8894H99.165ZM113.083 30.8894V21.3894C113.083 21.0144 112.883 20.8394 112.533 20.8394H111.533V18.1394H114.458C115.583 18.1394 116.133 18.6644 116.133 19.5644V19.9394C116.133 20.2144 116.083 20.4894 116.083 20.4894H116.133C116.683 19.4144 118.058 17.8394 120.633 17.8394C123.458 17.8394 125.083 19.3144 125.083 22.6894V27.6644C125.083 28.0144 125.283 28.2144 125.633 28.2144H126.633V30.8894H123.608C122.408 30.8894 121.908 30.3894 121.908 29.1894V23.3394C121.908 21.7894 121.508 20.7394 119.908 20.7394C118.208 20.7394 116.933 21.8144 116.483 23.3394C116.308 23.8644 116.233 24.4394 116.233 25.0394V30.8894H113.083ZM127.873 24.5144C127.873 20.6144 130.973 17.8394 134.848 17.8394C138.748 17.8394 141.848 20.6144 141.848 24.5144C141.848 28.4394 138.748 31.1894 134.848 31.1894C130.973 31.1894 127.873 28.4394 127.873 24.5144ZM131.073 24.5144C131.073 26.8894 132.798 28.4894 134.848 28.4894C136.923 28.4894 138.648 26.8894 138.648 24.5144C138.648 22.1644 136.923 20.5394 134.848 20.5394C132.798 20.5394 131.073 22.1644 131.073 24.5144ZM146.755 30.8894L143.705 21.2894C143.58 20.9144 143.38 20.8394 143.005 20.8394H142.655V18.1394H144.83C145.88 18.1394 146.38 18.4644 146.63 19.4394L148.505 26.5144C148.68 27.1894 148.755 27.8644 148.755 27.8644H148.805C148.805 27.8644 148.905 27.1894 149.105 26.5144L151.455 18.1894H154.255L156.63 26.5144C156.83 27.1894 156.905 27.8644 156.905 27.8644H156.955C156.955 27.8644 157.03 27.1894 157.205 26.5144L159.055 19.4394C159.305 18.4644 159.805 18.1394 160.855 18.1394H163.03V20.8394H162.68C162.305 20.8394 162.13 20.9144 161.98 21.2894L158.93 30.8894H155.355L153.18 23.6144C152.98 22.9394 152.88 22.2394 152.88 22.2394H152.83C152.83 22.2394 152.705 22.9394 152.505 23.6144L150.355 30.8894H146.755ZM165.354 30.8894V21.3894C165.354 21.0144 165.154 20.8394 164.804 20.8394H163.804V18.1394H166.729C167.854 18.1394 168.404 18.6644 168.404 19.5644V19.9394C168.404 20.2144 168.354 20.4894 168.354 20.4894H168.404C168.954 19.4144 170.329 17.8394 172.904 17.8394C175.729 17.8394 177.354 19.3144 177.354 22.6894V27.6644C177.354 28.0144 177.554 28.2144 177.904 28.2144H178.904V30.8894H175.879C174.679 30.8894 174.179 30.3894 174.179 29.1894V23.3394C174.179 21.7894 173.779 20.7394 172.179 20.7394C170.479 20.7394 169.204 21.8144 168.754 23.3394C168.579 23.8644 168.504 24.4394 168.504 25.0394V30.8894H165.354Z" fill="#3DA9D7"/>
<path fill-rule="evenodd" clip-rule="evenodd" d="M62.3807 12.4043C62.9066 12.4041 63.3941 12.6792 63.6658 13.1294L74.415 30.8894H70.7013L62.3829 16.81L54.0041 30.8894L50.5207 30.8606L61.0964 13.1306C61.3676 12.6801 61.8549 12.4046 62.3807 12.4043Z" fill="#ffffff"/>
<path d="M60.8557 23.7711L68.7437 23.7135V26.2756L59.3875 26.2756L60.8557 23.7711Z" fill="#ffffff"/>
<path d="M78.1439 14.169H87.0124C91.0717 14.169 94.3624 17.4597 94.3624 21.519V21.8894C94.3624 25.9487 91.0717 29.2394 87.0124 29.2394H78.1439V14.169Z" stroke="#ffffff" stroke-width="3.3"/>
</svg>
